<svg version="1.2" xmlns="http://www.w3.org/2000/svg" viewBox="0 0 32 32" width="42" height="42">
	<title>instagram-svg</title>
	<style>
		.s0 { fill: #000000 } 
	</style>
	<g id="Layer">
		<path id="Layer" class="s0" d="m24 9.8c-0.9 0-1.7-0.7-1.7-1.7 0-0.9 0.8-1.7 1.7-1.7 1 0 1.8 0.8 1.8 1.7 0 1-0.8 1.7-1.8 1.7z"/>
		<path id="Layer" fill-rule="evenodd" class="s0" d="m16.3 23.2c-4.1 0-7.3-3.3-7.3-7.3 0-4 3.2-7.3 7.3-7.3 4 0 7.2 3.3 7.2 7.3 0 4-3.2 7.3-7.2 7.3zm4.7-7.3c0-2.6-2.1-4.7-4.7-4.7-2.6 0-4.7 2.1-4.7 4.7 0 2.6 2.1 4.7 4.7 4.7 2.6 0 4.7-2.1 4.7-4.7z"/>
		<path id="Layer" fill-rule="evenodd" class="s0" d="m1.4 8.2c0-4 3.3-7.2 7.2-7.2h15.2c3.9 0 7.2 3.2 7.2 7.2v15c0 4-3.3 7.2-7.2 7.2h-15.2c-3.9 0-7.2-3.2-7.2-7.2zm2.8 14.8c0 2.7 2.2 5 5 5h14c2.8 0 5-2.3 5-5v-14.1c0-2.8-2.2-5-5-5h-14c-2.8 0-5 2.2-5 5z"/>
	</g>
</svg>